<svg xmlns="http://www.w3.org/2000/svg" viewBox="0 0 100 100" width="100px" height="100px"><circle cx="50" cy="50" r="35" fill="#39c2d8"/><path fill="#b3b2c3" d="M48.537,60.436l-5.279,4.876c0,0-0.228,0.178-0.54,0.186c-0.106,0.008-0.221-0.008-0.335-0.062	l1.483-8.947L48.537,60.436z"/><path fill="#fff" d="M59.643,66.128c0,0-0.243,1.372-1.917,1.372c-0.89,0-1.346-0.426-1.346-0.426L43.874,56.49	l-6.124-3.14l-7.858-2.132c0,0-1.392-0.411-1.392-1.59c0-0.985,1.438-1.45,1.438-1.45L62.8,34.872c0,0,0.845-0.372,1.575-0.372	c0.625,0,1.125,0.375,1.125,1c0,0.121-0.012,0.252-0.029,0.375C65.434,36.145,59.643,66.128,59.643,66.128z"/><path fill="#d7d6eb" d="M59.34,40.81c-0.15-0.203-0.375-0.309-0.605-0.31c-0.165-0.001-0.332,0.052-0.475,0.163L37.75,53.357	c0,0,3.913,10.95,3.992,11.143c0.372,0.91,0.641,0.936,0.641,0.936l1.483-8.947l15.33-14.578c0.201-0.154,0.305-0.389,0.304-0.625	C59.5,41.119,59.447,40.951,59.34,40.81z"/><path fill="#1f212b" d="M50,86c-19.851,0-36-16.149-36-36s16.149-36,36-36s36,16.149,36,36S69.851,86,50,86z M50,16	c-18.748,0-34,15.252-34,34s15.252,34,34,34s34-15.252,34-34S68.748,16,50,16z"/><path fill="#1f212b" d="M65.5,24.227c-0.087,0-0.175-0.022-0.255-0.07c-0.638-0.377-1.299-0.735-1.967-1.065	c-0.247-0.123-0.349-0.422-0.227-0.67c0.123-0.249,0.425-0.347,0.67-0.227c0.689,0.341,1.374,0.711,2.033,1.102	c0.237,0.141,0.316,0.447,0.176,0.685C65.837,24.139,65.671,24.227,65.5,24.227z"/><path fill="#1f212b" d="M68.5,26.25c-0.106,0-0.213-0.034-0.304-0.103c-0.322-0.247-0.65-0.486-0.983-0.72	c-0.226-0.159-0.281-0.47-0.122-0.696c0.158-0.228,0.47-0.28,0.696-0.123c0.345,0.241,0.683,0.49,1.017,0.745	c0.22,0.167,0.261,0.481,0.094,0.701C68.799,26.182,68.65,26.25,68.5,26.25z"/><path fill="#1f212b" d="M50,81c-17.094,0-31-13.907-31-31s13.906-31,31-31c3.668,0,7.259,0.635,10.672,1.886	c0.26,0.095,0.393,0.382,0.298,0.642s-0.383,0.393-0.642,0.297C57.025,20.614,53.551,20,50,20c-16.542,0-30,13.458-30,30	s13.458,30,30,30s30-13.458,30-30c0-8.439-3.585-16.535-9.836-22.213c-0.205-0.186-0.22-0.502-0.034-0.707	c0.187-0.204,0.503-0.219,0.706-0.034C77.296,32.914,81,41.28,81,50C81,67.093,67.094,81,50,81z"/><path fill="#1f212b" d="M57.726,68c-1.056,0-1.626-0.503-1.688-0.561L43.595,56.909l-6.026-3.091l-7.808-2.119	C29.679,51.675,28,51.162,28,49.627c0-1.333,1.711-1.902,1.783-1.926l32.829-13.293C62.637,34.397,63.549,34,64.375,34	C65.316,34,66,34.631,66,35.5c0,0.143-0.015,0.298-0.034,0.442c-0.038,0.276-5.235,27.19-5.832,30.277	C60.022,66.837,59.378,68,57.726,68z M64.375,35c-0.613,0-1.367,0.326-1.374,0.33L30.125,48.641C29.81,48.746,29,49.126,29,49.627	c0,0.785,1.025,1.107,1.035,1.11l7.846,2.129c0.034,0.009,0.066,0.021,0.098,0.038l6.124,3.141c0.033,0.017,0.065,0.039,0.095,0.063	l12.505,10.584C56.728,66.714,57.064,67,57.726,67c1.24,0,1.418-0.92,1.425-0.96c0-0.002,0.001-0.005,0.001-0.007	c1.985-10.279,5.758-29.827,5.825-30.234C64.989,35.707,65,35.6,65,35.5C65,35.024,64.479,35,64.375,35z"/><path fill="#1f212b" d="M42.655,66c-0.159,0-0.328-0.038-0.486-0.113c-0.202-0.096-0.315-0.313-0.279-0.534l1.483-8.946	c0.029-0.177,0.151-0.325,0.32-0.387c0.17-0.063,0.358-0.029,0.495,0.087l4.67,3.946c0.11,0.092,0.175,0.228,0.178,0.371	c0.003,0.144-0.056,0.281-0.161,0.378l-5.278,4.876c-0.091,0.074-0.413,0.307-0.866,0.319C42.706,66,42.681,66,42.655,66z M44.216,57.439l-1.236,7.452l4.802-4.439L44.216,57.439z"/><path fill="#1f212b" d="M42.383,65.936c-0.016,0-0.032-0.001-0.049-0.002c-0.378-0.037-0.732-0.456-1.055-1.245	c-0.079-0.194-3.346-9.333-4-11.164c-0.079-0.222,0.007-0.47,0.208-0.594l20.51-12.694c0.187-0.147,0.438-0.243,0.741-0.237	c0.396,0.001,0.761,0.188,1.002,0.509c0.168,0.222,0.26,0.498,0.26,0.777c0,0.405-0.182,0.777-0.498,1.021l-15.17,14.43	l-1.456,8.781C42.836,65.761,42.625,65.936,42.383,65.936z M38.356,53.569c1.226,3.428,3.272,9.151,3.751,10.473l1.266-7.635	c0.018-0.107,0.07-0.206,0.148-0.28l15.33-14.579C58.96,41.462,59,41.378,59,41.286c0-0.044-0.01-0.111-0.059-0.175	c0-0.001-0.001-0.002-0.002-0.002c-0.052-0.07-0.115-0.083-0.208-0.109c-0.06,0-0.117,0.021-0.167,0.059L38.356,53.569z"/></svg>