<svg xmlns="http://www.w3.org/2000/svg" width="256" height="256"><path d="M104.5 5.033C54.291 15.589 16.247 55.177 7.433 106.039c-2.46 14.195-1.581 39.134 1.833 52.046 3.162 11.956 7.694 23.386 12.772 32.207 2.609 4.533 3.502 6.926 2.685 7.198-.672.223-6.173 1.839-12.223 3.59-6.05 1.751-11.182 3.344-11.404 3.539-.222.196 2.875 3.986 6.882 8.424l7.285 8.069-2.017 10.694c-1.109 5.882-1.928 10.797-1.82 10.922.109.126 10.391-2.761 22.851-6.415l22.653-6.643 5.38 3.573c37.647 24.996 88.334 25.876 127.581 2.216 4.98-3.002 9.412-5.459 9.849-5.459.436 0 10.675 2.898 22.752 6.441 12.078 3.543 22.036 6.355 22.129 6.25.093-.105-.733-5.026-1.836-10.936l-2.006-10.745 7.11-7.887c3.911-4.339 7.111-8.095 7.111-8.347 0-.253-1.912-1.016-4.25-1.697s-7.924-2.343-12.415-3.693l-8.165-2.455 3.932-6.716c4.86-8.3 9.349-19.753 12.627-32.215 3.396-12.911 4.284-37.931 1.844-51.961-9.036-51.957-49.085-92.619-99.958-101.491-12.318-2.148-32.654-1.925-44.115.485m79.721 148.381c-.651 1.428-2.008 2.586-3.033 2.586-2.804 0-3.374 1.137-1.571 3.129 1.028 1.137 1.458 2.904 1.175 4.832-.245 1.671-.32 3.039-.166 3.039s1.426-.522 2.827-1.161c1.944-.885 3.167-.877 5.165.033 2.546 1.16 2.606 1.109 2.173-1.841-.305-2.08.122-3.548 1.358-4.666 2.073-1.876 1.575-3.365-1.125-3.365-1.021 0-2.705-1.164-3.741-2.586l-1.884-2.586-1.178 2.586m-66.868 31.237c.356 4.208.647 9.095.647 10.861 0 2.868.262 3.161 2.45 2.742 2.123-.405 2.489-1.086 2.75-5.111l.3-4.643 3 5.249c2.721 4.761 5.575 6.646 6.816 4.501.239-.412.751-5.363 1.139-11l.705-10.25h-3.58c-3.462 0-3.581.123-3.624 3.75l-.044 3.75-1.98-3.75c-1.731-3.279-2.435-3.75-5.603-3.75h-3.622l.646 7.651m55.166-.709c-.36 1.132-.961 2.059-1.336 2.059-.376.001-.765 3.553-.866 7.894l-.182 7.891 5.415.677c6.066.758 6.974.464 7.752-2.508.664-2.54-3.291-4.591-4.578-2.375-1.499 2.58-3.492.516-2.785-2.884.62-2.981.913-3.174 4.363-2.868 3.196.284 3.698.043 3.698-1.775 0-1.528-.805-2.264-2.945-2.692-2.008-.402-3.043-1.269-3.25-2.725-.419-2.938-4.408-3.462-5.286-.694M65.968 191.25l-.032 8.25-3.096-7.326c-2.922-6.914-3.244-7.29-5.718-6.68-1.442.356-2.925.953-3.295 1.327-.37.373 1.596 4.866 4.368 9.983 4.98 9.191 5.078 9.295 8.173 8.644 1.722-.362 3.433-.949 3.8-1.303.368-.355.988-5.258 1.379-10.895l.711-10.25H66l-.032 8.25m70.466-6.939c-.295.77-.401 4.277-.235 7.794l.301 6.395 6.764.296c7.882.345 8.012.199 8.148-9.188l.088-6.108-7.264-.294c-5.508-.223-7.395.044-7.802 1.105m-43.757.81c-1.848 1.074-1.85 2.734-.014 12.263l.555 2.885 6.569-.614c6.201-.579 8.778-1.932 7.529-3.953-.304-.492-2.524-.598-4.934-.237-2.836.426-4.382.283-4.382-.404 0-.583 1.313-1.061 2.918-1.061 5.165 0 6.082-.845 6.082-5.607V184l-6.25.03c-3.437.017-7.07.508-8.073 1.091m60.8 5.253c-.812 7.581-.308 9.626 2.375 9.626 2.093 0 3.112-2.522 3.134-7.75.011-2.579.427-3.25 2.014-3.25 1.333 0 2 .667 2 2 0 1.449.667 2 2.421 2 1.893 0 2.568-.675 3.101-3.099.374-1.704.297-3.465-.171-3.912-.468-.448-3.848-1.127-7.51-1.508l-6.659-.694-.705 6.587m-67.815-4.668c-1.625.42-1.758 1.159-1.152 6.384.641 5.517.55 5.91-1.367 5.91-1.585 0-2.207-.854-2.729-3.75-.373-2.062-1.084-4.537-1.581-5.5-.912-1.766-4.31-2.406-5.193-.977-.57.923 2.194 13.416 3.196 14.445.385.395 3.735.215 7.444-.4l6.745-1.118-.594-6.6c-.87-9.655-.744-9.432-4.769-8.394M142 191c0 3.333.333 4 2 4s2-.667 2-4-.333-4-2-4-2 .667-2 4m-45-1.57c0 1.021.903 1.57 2.583 1.57 3.133 0 2.79-2.348-.411-2.82-1.443-.212-2.172.208-2.172 1.25m89.904-.18c-1.09 2.843-2.29 14.011-1.554 14.466.532.329 3.588 1.145 6.792 1.814 4.851 1.012 6.018.982 6.984-.182 1.553-1.87.611-2.61-4.182-3.283-2.21-.311-3.889-1.015-3.731-1.565.158-.55.512-.927.787-.838.275.089 2.162.472 4.194.851 3.559.663 3.753.549 5.278-3.099 1.28-3.065 1.338-4.014.305-4.97-1.923-1.78-14.389-4.457-14.873-3.194m4.79 5.389c-1.043 1.043.278 2.361 2.365 2.361 1.068 0 1.941-.675 1.941-1.5 0-1.483-3.07-2.097-4.306-.861" fill="undefined" fill-rule="evenodd"/></svg>